<svg xmlns="http://www.w3.org/2000/svg" width="89.433" height="84.965" viewBox="0 0 89.433 84.965">
  <path id="Path_22" data-name="Path 22" d="M88.636,31.307a9.765,9.765,0,0,0-9.761,9.761,10.123,10.123,0,0,0,.254,2.218L63.79,49.625a14.162,14.162,0,0,0-6.18-5.863L62.9,28.772a3.445,3.445,0,0,0,.57.032,6.409,6.409,0,1,0-3.549-1.078L54.6,42.716a14.939,14.939,0,0,0-3.169-.349,14.38,14.38,0,0,0-6.275,1.458l-4.849-7.543a8.924,8.924,0,1,0-6.085,2.409,8.806,8.806,0,0,0,3.423-.7l4.849,7.543a13.912,13.912,0,0,0-4.785,7.574L19.01,50.7A5.118,5.118,0,1,0,18.6,53.84l18.7,2.409v.222a14.071,14.071,0,0,0,3.3,9.064l-13.532,14.2A10.478,10.478,0,0,0,20.943,77.8,10.648,10.648,0,1,0,31.591,88.447a10.446,10.446,0,0,0-2.25-6.528l13.532-14.2a14.226,14.226,0,0,0,6.877,2.789l-.475,8.462a5.137,5.137,0,1,0,3.169.063l.475-8.493a13.906,13.906,0,0,0,4.817-1.426L71.427,90.222a6.438,6.438,0,1,0,2.63-1.711L60.367,67.4a13.818,13.818,0,0,0,3.264-3.9l11.694,5.071c0,.158-.032.317-.032.475a5.12,5.12,0,1,0,1.3-3.391L64.9,60.59a13.643,13.643,0,0,0,.6-4.12,14.3,14.3,0,0,0-.539-3.9L80.3,46.2a9.75,9.75,0,1,0,8.335-14.9ZM63.441,19.169A3.233,3.233,0,1,1,60.209,22.4,3.246,3.246,0,0,1,63.441,19.169ZM28.454,29.754a5.768,5.768,0,1,1,5.768,5.768A5.789,5.789,0,0,1,28.454,29.754ZM14,53.586a1.933,1.933,0,1,1,1.933-1.933A1.921,1.921,0,0,1,14,53.586Zm65.38,40.945A3.233,3.233,0,1,1,76.149,91.3,3.206,3.206,0,0,1,79.382,94.532Zm1.078-27.445a1.933,1.933,0,1,1-1.933,1.933A1.921,1.921,0,0,1,80.459,67.087ZM20.943,95.894a7.479,7.479,0,1,1,7.479-7.479A7.493,7.493,0,0,1,20.943,95.894ZM50.8,85.753a1.933,1.933,0,1,1,1.933-1.933A1.921,1.921,0,0,1,50.8,85.753Zm.634-18.318A10.965,10.965,0,1,1,62.4,56.47,10.969,10.969,0,0,1,51.43,67.435ZM88.636,47.628a6.592,6.592,0,1,1,6.592-6.592A6.587,6.587,0,0,1,88.636,47.628Z" transform="translate(-8.9 -16)" fill="#000131"/>
</svg>
