<svg xmlns="http://www.w3.org/2000/svg" width="82.185" height="88.4" viewBox="0 0 82.185 88.4">
  <g id="noun_creativity_1395976" transform="translate(699.169 25.2)">
    <g id="Group" transform="translate(-708 -31)">
      <path id="Path" d="M54.5,5.8l-4.4.3A36.6,36.6,0,0,0,18,42L9,63.6a2,2,0,0,0,1.7,2.8l8.3.7,2.4,18.7a2,2,0,0,0,2.3,1.7l12.9-2v6.7a2,2,0,0,0,4,0V83.1a2,2,0,0,0-2.3-2L25.1,83.2,22.8,65A2,2,0,0,0,21,63.3l-7.2-.6,8-19.5a2,2,0,0,0,.2-.8A32.5,32.5,0,0,1,50.7,10.1l3.9-.2A32.6,32.6,0,0,1,74.3,68.3a2,2,0,0,0-.8,1.6V92.1a2,2,0,0,0,4,0V70.9a36.6,36.6,0,0,0-22.9-65Z" fill="#000131"/>
      <path id="Compound_Path" data-name="Compound Path" d="M65.2,52.3a17.6,17.6,0,0,0,.6-26.7,17.3,17.3,0,0,0-13.7-4.3A17.5,17.5,0,0,0,36.7,36.9a17.1,17.1,0,0,0,6.2,15.2,5.5,5.5,0,0,1,2,4.2v.4h0V61a9.2,9.2,0,0,0,18.3,0V56.5h0a5.6,5.6,0,0,1,2-4.2ZM54.1,66.2A5.2,5.2,0,0,1,48.9,61V58.7H59.3v2.4A5.2,5.2,0,0,1,54.1,66.2Zm0-22a1.418,1.418,0,1,1,0,.1Zm8.5,5a9.7,9.7,0,0,0-3.1,5.4H56.1V48a7.4,7.4,0,1,0-4,0v6.7H48.8A9.8,9.8,0,0,0,45.4,49a13,13,0,0,1-4.8-11.7,13.5,13.5,0,0,1,26.9,1.5,13.7,13.7,0,0,1-4.9,10.5Z" fill="#000131"/>
    </g>
  </g>
</svg>
