<svg id="Consult" xmlns="http://www.w3.org/2000/svg" width="94.341" height="83.334" viewBox="0 0 94.341 83.334">
  <path id="Path_23" data-name="Path 23" d="M39.636,12.749a16.862,16.862,0,0,0-8.91,4.747l-2.948,2.947a4.734,4.734,0,0,0-4.83-.561L14.771,23.6a3.145,3.145,0,0,0-.923,5.087L17.8,32.64a1.572,1.572,0,0,0,1.112.461,1.542,1.542,0,0,0,.5-.08l1.73-.579L20.07,34.6a4.717,4.717,0,0,0-3.377,1.376c-1.294,1.3-4.517,6.6-2.223,8.895a2.964,2.964,0,0,0,2.178.8,12.061,12.061,0,0,0,6.717-3.027h0a4.7,4.7,0,0,0,1.376-3.377L26.9,38.19l-.579,1.73a1.572,1.572,0,0,0,.381,1.609l3.951,3.961a3.145,3.145,0,0,0,2.223.921,3.239,3.239,0,0,0,.561-.05,3.145,3.145,0,0,0,2.3-1.792l3.717-8.176a4.741,4.741,0,0,0-.564-4.824l2.947-2.948a16.862,16.862,0,0,0,4.747-8.91c.516-2.83.192-4.785-.989-5.964S42.468,12.235,39.636,12.749ZM19.34,29.731l-3.266-3.267,8.176-3.717a1.557,1.557,0,0,1,1.236-.013l-5.461,5.461a1.546,1.546,0,0,0-.4,1.44Zm1.8,10.692a9.758,9.758,0,0,1-4.354,2.129A9.749,9.749,0,0,1,18.916,38.2a1.573,1.573,0,0,1,2.225,2.223Zm2.223-4.448h0l-.305-.305.741-1.483,1.362,1.362-1.483.741-.314-.314Zm13.233-.89-3.719,8.176-3.267-3.267.1-.291a1.594,1.594,0,0,0,.329.063,1.572,1.572,0,0,0,1.111-.46l5.459-5.459A1.572,1.572,0,0,1,36.6,35.085Zm6.9-15.945a13.73,13.73,0,0,1-3.881,7.25l-9.583,9.591-2.225-2.223,6.671-6.671-2.223-2.223-6.671,6.671-2.223-2.225,9.591-9.583A13.731,13.731,0,0,1,40.2,15.85c2.044-.374,2.961-.1,3.179.118S43.86,17.1,43.495,19.139Z" transform="translate(4.254 -5.416)" fill="#000131"/>
  <path id="Path_24" data-name="Path 24" d="M31.357,16.992,28.022,15.88l-1,2.987,2.59.863.863,2.59,2.987-1L32.356,17.99a1.572,1.572,0,0,0-1-1Z" transform="translate(12.324 -3.49)" fill="#000131"/>
  <path id="Path_25" data-name="Path 25" d="M71.183,47.309V15.862A7.871,7.871,0,0,0,63.321,8H9.862A7.871,7.871,0,0,0,2,15.862V47.309A7.871,7.871,0,0,0,9.862,55.17h7.052L24.3,65.518a1.572,1.572,0,0,0,2.854-.914V55.17H63.321a7.871,7.871,0,0,0,7.862-7.862Zm-45.6,4.717A1.572,1.572,0,0,0,24.013,53.6v6.1L19,52.684a1.572,1.572,0,0,0-1.28-.659H9.862a4.717,4.717,0,0,1-4.717-4.717V15.862a4.717,4.717,0,0,1,4.717-4.717h53.46a4.717,4.717,0,0,1,4.717,4.717V47.309a4.717,4.717,0,0,1-4.717,4.717Z" transform="translate(-2 -8)" fill="#000131"/>
  <path id="Path_26" data-name="Path 26" d="M78.177,27H64.026v3.145H78.177a4.717,4.717,0,0,1,4.717,4.717v28.3a4.717,4.717,0,0,1-4.717,4.717H64.026a1.572,1.572,0,0,0-1.208.566l-5.082,6.1V69.453a1.572,1.572,0,0,0-1.572-1.572h-28.3a4.717,4.717,0,0,1-4.717-4.717V47.44H20V63.164a7.871,7.871,0,0,0,7.862,7.862h26.73v7.862a1.572,1.572,0,0,0,2.78,1.006l7.39-8.868H78.177a7.871,7.871,0,0,0,7.862-7.862v-28.3A7.871,7.871,0,0,0,78.177,27Z" transform="translate(8.302 2.875)" fill="#000131"/>
  <rect id="Rectangle_43" data-name="Rectangle 43" width="43" height="4" transform="translate(40 50)" fill="#000131"/>
  <rect id="Rectangle_44" data-name="Rectangle 44" width="43" height="3" transform="translate(40 60)" fill="#000131"/>
  <rect id="Rectangle_45" data-name="Rectangle 45" width="9" height="3" transform="translate(74 41)" fill="#000131"/>
</svg>
