<svg id="Group_14" data-name="Group 14" xmlns="http://www.w3.org/2000/svg" width="95.15" height="95.347" viewBox="0 0 95.15 95.347">
  <path id="Path_27" data-name="Path 27" d="M76.91,25.017l-1.995,2,0,0s0,0,0,0L35.039,66.887a2.061,2.061,0,0,0-.59,1.592l-3.2,11.388A2.094,2.094,0,0,0,33.8,82.456l11.469-3.1c.061.006.114.035.175.035a2.09,2.09,0,0,0,1.479-.611L88.8,36.9a6.01,6.01,0,0,0,0-8.5l-3.38-3.382A6.156,6.156,0,0,0,76.91,25.017Zm-.518,6.434,5.971,5.972L45.445,74.338l-5.971-5.972Zm-40.125,46,1.4-4.978L41.289,76.1Zm50.106-44.8a1.817,1.817,0,0,1-.534,1.293l-.519.518-5.972-5.97.519-.52a1.877,1.877,0,0,1,2.588,0l3.382,3.386A1.819,1.819,0,0,1,86.374,32.652Z" transform="translate(4.593 4.874)" fill="#000131"/>
  <path id="Path_28" data-name="Path 28" d="M53.328,43.235a2.091,2.091,0,0,0-2.091-2.091H25.875a2.092,2.092,0,0,0,0,4.184H51.236A2.093,2.093,0,0,0,53.328,43.235Z" transform="translate(1.567 2.133)" fill="#000131"/>
  <path id="Path_29" data-name="Path 29" d="M51.236,26.419H25.875a2.092,2.092,0,0,0,0,4.184H51.236a2.092,2.092,0,0,0,0-4.184Z" transform="translate(1.567 1.37)" fill="#000131"/>
  <path id="Path_30" data-name="Path 30" d="M25.875,54a2.091,2.091,0,1,0,0,4.183h7.219a2.091,2.091,0,1,0,0-4.183Z" transform="translate(1.122 2.8)" fill="#000131"/>
  <path id="Path_31" data-name="Path 31" d="M65.334,36.846a2.233,2.233,0,0,0,2.259-2.207V7a2.233,2.233,0,0,0-2.259-2.207h-9.9V2.208a2.259,2.259,0,0,0-4.518,0V4.792H36.221V2.208a2.259,2.259,0,0,0-4.518,0V4.792H17.011V2.208a2.259,2.259,0,0,0-4.518,0V4.792H2.484A2.232,2.232,0,0,0,.225,7V93.14a2.233,2.233,0,0,0,2.259,2.207h53.89A11.222,11.222,0,0,0,67.711,84.273v-8a2.259,2.259,0,0,0-4.518,0v8a6.749,6.749,0,0,1-6.819,6.66H4.744V9.206h7.749v2.535a2.259,2.259,0,0,0,4.518,0V9.206H31.7v2.535a2.259,2.259,0,0,0,4.518,0V9.206H50.91v2.535a2.259,2.259,0,0,0,4.518,0V9.206h7.645V34.638A2.236,2.236,0,0,0,65.334,36.846Z" transform="translate(-0.225)" fill="#000131"/>
  <path id="Path_32" data-name="Path 32" d="M20.945,21.55a2.09,2.09,0,0,0-2.92.468l-3.719,5.137-.4-.314a2.092,2.092,0,0,0-2.6,3.279l2.111,1.672a2.088,2.088,0,0,0,1.3.452,1.976,1.976,0,0,0,.285-.02,2.094,2.094,0,0,0,1.408-.845l5-6.909A2.091,2.091,0,0,0,20.945,21.55Z" transform="translate(-0.287 1.203)" fill="#000131"/>
  <path id="Path_33" data-name="Path 33" d="M20.945,35.656a2.092,2.092,0,0,0-2.92.466l-3.719,5.139-.4-.316a2.092,2.092,0,0,0-2.6,3.279L13.42,45.9a2.089,2.089,0,0,0,1.3.453,1.975,1.975,0,0,0,.285-.02,2.089,2.089,0,0,0,1.408-.847l5-6.907A2.092,2.092,0,0,0,20.945,35.656Z" transform="translate(-0.287 2.006)" fill="#000131"/>
  <path id="Path_34" data-name="Path 34" d="M14.705,54.611a2.093,2.093,0,1,0,2.957,0A2.16,2.16,0,0,0,14.705,54.611Z" transform="translate(-0.308 2.8)" fill="#000131"/>
</svg>
