<svg id="noun_update_619130" xmlns="http://www.w3.org/2000/svg" width="95.737" height="95.634" viewBox="0 0 95.737 95.634">
  <path id="Path_35" data-name="Path 35" d="M69.72,44.6a24.824,24.824,0,0,0-3.355,49.391V64.16L58.83,71.7a3.357,3.357,0,0,1-4.748-4.748L67.294,53.735h.052l.206-.155H67.6l.206-.155h.052l.206-.155h.052l.258-.1h0l.31-.1h1.961l.31.1h0l.258.1h.052l.206.155h.052l.206.155h.052l.206.155h.052L85.255,66.947A3.357,3.357,0,0,1,80.506,71.7L73.023,64.16V93.991A24.824,24.824,0,0,0,69.668,44.6Z" transform="translate(-21.826 -21.582)" fill="#000131"/>
  <path id="Path_36" data-name="Path 36" d="M89.555,15.535A3.355,3.355,0,0,1,86.2,12.18V3.355a3.355,3.355,0,1,1,6.709,0V12.18A3.355,3.355,0,0,1,89.555,15.535Z" transform="translate(-41.712 0)" fill="#000131"/>
  <path id="Path_37" data-name="Path 37" d="M57.884,12.585a1.806,1.806,0,0,1-1.652-1.135l-.981-2.426a1.806,1.806,0,1,1,3.3-1.342l.981,2.426a1.806,1.806,0,0,1-.981,2.374Z" transform="translate(-26.608 -3.037)" fill="#000131"/>
  <path id="Path_38" data-name="Path 38" d="M123.218,12.7l-.671-.155a1.806,1.806,0,0,1-.981-2.374l.981-2.426A1.816,1.816,0,1,1,125.9,9.143l-.981,2.426A1.806,1.806,0,0,1,123.218,12.7Z" transform="translate(-58.757 -3.208)" fill="#000131"/>
  <path id="Path_39" data-name="Path 39" d="M168.661,59.608a1.806,1.806,0,0,1-.671-3.458l2.426-.981a1.816,1.816,0,1,1,1.393,3.355l-2.426.981Z" transform="translate(-80.769 -26.629)" fill="#000131"/>
  <path id="Path_40" data-name="Path 40" d="M171.046,125.759l-.671-.155-2.426-.981a1.816,1.816,0,1,1,1.393-3.355l2.426.981a1.806,1.806,0,0,1-.671,3.458Z" transform="translate(-80.729 -58.615)" fill="#000131"/>
  <path id="Path_41" data-name="Path 41" d="M124.2,172.6a1.806,1.806,0,0,1-1.652-1.135l-.981-2.426a1.816,1.816,0,0,1,3.355-1.393l.981,2.426a1.806,1.806,0,0,1-.981,2.374Z" transform="translate(-58.76 -80.584)" fill="#000131"/>
  <path id="Path_42" data-name="Path 42" d="M57.018,172.6l-.671-.155a1.806,1.806,0,0,1-.981-2.374l.981-2.426a1.816,1.816,0,1,1,3.355,1.393l-.981,2.426A1.806,1.806,0,0,1,57.018,172.6Z" transform="translate(-26.723 -80.584)" fill="#000131"/>
  <path id="Path_43" data-name="Path 43" d="M8.861,125.808a1.806,1.806,0,0,1-.671-3.458l2.426-.981a1.816,1.816,0,0,1,1.393,3.355l-2.426.981Z" transform="translate(-3.442 -58.663)" fill="#000131"/>
  <path id="Path_44" data-name="Path 44" d="M11.146,59.559l-.671-.155L8.05,58.424a1.816,1.816,0,1,1,1.393-3.355l2.426.981a1.806,1.806,0,0,1-.671,3.458Z" transform="translate(-3.353 -26.581)" fill="#000131"/>
  <path id="Path_45" data-name="Path 45" d="M138.551,38.052a3.355,3.355,0,0,1-2.374-5.729l6.245-6.245a3.357,3.357,0,1,1,4.748,4.748l-6.245,6.245A3.355,3.355,0,0,1,138.551,38.052Z" transform="translate(-65.419 -12.143)" fill="#000131"/>
  <path id="Path_46" data-name="Path 46" d="M158.755,92.809a3.355,3.355,0,1,1,0-6.709h8.825a3.355,3.355,0,1,1,0,6.709Z" transform="translate(-75.198 -41.664)" fill="#000131"/>
  <path id="Path_47" data-name="Path 47" d="M144.7,147.952a3.355,3.355,0,0,1-2.374-.981l-6.245-6.245a3.357,3.357,0,1,1,4.748-4.748l6.245,6.245a3.355,3.355,0,0,1-2.374,5.729Z" transform="translate(-65.372 -65.324)" fill="#000131"/>
  <path id="Path_48" data-name="Path 48" d="M89.555,170.735A3.355,3.355,0,0,1,86.2,167.38v-8.825a3.355,3.355,0,1,1,6.709,0v8.825a3.355,3.355,0,0,1-3.355,3.355Z" transform="translate(-41.712 -75.101)" fill="#000131"/>
  <path id="Path_49" data-name="Path 49" d="M28.551,147.852a3.355,3.355,0,0,1-2.374-5.729l6.245-6.245a3.357,3.357,0,1,1,4.748,4.748l-6.245,6.245A3.355,3.355,0,0,1,28.551,147.852Z" transform="translate(-12.19 -65.275)" fill="#000131"/>
  <path id="Path_50" data-name="Path 50" d="M3.355,92.709a3.355,3.355,0,1,1,0-6.709H12.18a3.355,3.355,0,0,1,0,6.709Z" transform="translate(0 -41.615)" fill="#000131"/>
  <path id="Path_51" data-name="Path 51" d="M34.9,37.952a3.355,3.355,0,0,1-2.374-.981l-6.245-6.245a3.357,3.357,0,1,1,4.748-4.748l6.245,6.245A3.355,3.355,0,0,1,34.9,37.952Z" transform="translate(-12.24 -12.095)" fill="#000131"/>
</svg>
